<svg viewBox="575 286.2902 380 159.9195" width="5000" height="2104.203947368421" xmlns="http://www.w3.org/2000/svg" xmlns:xlink="http://www.w3.org/1999/xlink" preserveAspectRatio="none"><defs></defs><style>.a6izo4zJpcolor {fill:#6D7170;fill-opacity:1;}.aD6z1nYkhcolor {fill:#FF4081;fill-opacity:1;}.aIptOCySncolors-0 {fill:#6D7170;fill-opacity:1;}.aIptOCySncolors-3 {fill:#7EDBB0;fill-opacity:1;}.aIptOCySncolors-4 {fill:#C697E3;fill-opacity:1;}.aIptOCySncolors-5 {fill:#D7ED5F;fill-opacity:1;}.aIptOCySncolors-6 {fill:#7EDBB0;fill-opacity:1;}.aIptOCySncolors-7 {fill:#C697E3;fill-opacity:1;}.icon2 {fill:#C697E3;fill-opacity:1;}.icon3 {fill:#D7ED5F;fill-opacity:1;}.icon3-str {stroke:#D7ED5F;stroke-opacity:1;}</style><g opacity="1" transform="rotate(0 575 286.2902)">
<svg width="119.9396" height="119.9396" x="575" y="286.2902" version="1.1" preserveAspectRatio="none" viewBox="2.5 2.5 95 95">
  <g transform="matrix(1 0 0 1 0 0)" class="aIptOCySncolors-0"><switch><g><path d="M2.5,2.5v95h95v-95H2.5z M20.8,94.1H5.9V79.2h14.9V94.1z M20.8,75.8H5.9V60.9h14.9V75.8z M20.8,57.4H5.9V42.6h14.9V57.4z     M20.8,39.1H5.9V24.2h14.9V39.1z M20.8,20.8H5.9V5.9h14.9V20.8z M39.1,94.1H24.2V79.2h14.9V94.1z M39.1,57.4H24.2V42.6h14.9V57.4z     M39.1,20.8H24.2V5.9h14.9V20.8z M57.4,94.1H42.6V79.2h14.9V94.1z M57.4,75.8H42.6V60.9h14.9V75.8z M57.4,39.1H42.6V24.2h14.9    V39.1z M57.4,20.8H42.6V5.9h14.9V20.8z M75.8,94.1H60.9V79.2h14.9V94.1z M75.8,57.4H60.9V42.6h14.9V57.4z M75.8,20.8H60.9V5.9    h14.9V20.8z M94.1,94.1H79.2V79.2h14.9V94.1z M94.1,75.8H79.2V60.9h14.9V75.8z M94.1,57.4H79.2V42.6h14.9V57.4z M94.1,39.1H79.2    V24.2h14.9V39.1z M94.1,20.8H79.2V5.9h14.9V20.8z"></path></g></switch></g>
</svg>
</g><g opacity="1" transform="rotate(0 616.3924 422.2218)">
<svg width="297.215" height="23.9879" x="616.3924" y="422.2218" version="1.1" preserveAspectRatio="none" viewBox="3.76 -30.88 386.08 31.159999999999997">
  <g transform="matrix(1 0 0 1 0 0)" class="a6izo4zJpcolor"><path id="id-6izo4zJp17" d="M34.40 0L29.48 0L29.44-18.56L20.24-3.20L17.92-3.20L8.72-18.32L8.72 0L3.76 0L3.76-28L8.04-28L19.16-9.44L30.08-28L34.36-28L34.40 0Z M45.48 0L45.48-21.36L50.48-21.36L50.48 0L45.48 0ZM48-24.88Q46.64-24.88 45.72-25.74Q44.80-26.60 44.80-27.88L44.80-27.88Q44.80-29.16 45.72-30.02Q46.64-30.88 48-30.88L48-30.88Q49.36-30.88 50.28-30.06Q51.20-29.24 51.20-28L51.20-28Q51.20-26.68 50.30-25.78Q49.40-24.88 48-24.88L48-24.88Z M61.04 0L61.04-29.68L66.04-29.68L66.04 0L61.04 0Z M76.60 0L76.60-29.68L81.60-29.68L81.60 0L76.60 0Z M92.16 0L92.16-21.36L97.16-21.36L97.16 0L92.16 0ZM94.68-24.88Q93.32-24.88 92.40-25.74Q91.48-26.60 91.48-27.88L91.48-27.88Q91.48-29.16 92.40-30.02Q93.32-30.88 94.68-30.88L94.68-30.88Q96.04-30.88 96.96-30.06Q97.88-29.24 97.88-28L97.88-28Q97.88-26.68 96.98-25.78Q96.08-24.88 94.68-24.88L94.68-24.88Z M117.32 0.28Q114.08 0.28 111.48-1.12Q108.88-2.52 107.42-5.02Q105.96-7.52 105.96-10.68L105.96-10.68Q105.96-13.84 107.42-16.32Q108.88-18.80 111.48-20.20Q114.08-21.60 117.32-21.60L117.32-21.60Q120.60-21.60 123.20-20.20Q125.80-18.80 127.26-16.32Q128.72-13.84 128.72-10.68L128.72-10.68Q128.72-7.52 127.26-5.02Q125.80-2.52 123.20-1.12Q120.60 0.28 117.32 0.28L117.32 0.28ZM117.32-4Q120.08-4 121.88-5.84Q123.68-7.68 123.68-10.68L123.68-10.68Q123.68-13.68 121.88-15.52Q120.08-17.36 117.32-17.36L117.32-17.36Q114.56-17.36 112.78-15.52Q111.00-13.68 111.00-10.68L111.00-10.68Q111.00-7.68 112.78-5.84Q114.56-4 117.32-4L117.32-4Z M149.64-21.60Q153.68-21.60 156.12-19.24Q158.56-16.88 158.56-12.24L158.56-12.24L158.56 0L153.56 0L153.56-11.60Q153.56-14.40 152.24-15.82Q150.92-17.24 148.48-17.24L148.48-17.24Q145.72-17.24 144.12-15.58Q142.52-13.92 142.52-10.80L142.52-10.80L142.52 0L137.52 0L137.52-21.36L142.28-21.36L142.28-18.60Q143.52-20.08 145.40-20.84Q147.28-21.60 149.64-21.60L149.64-21.60Z M195.96-28Q199.60-28 202.30-26.80Q205-25.60 206.44-23.36Q207.88-21.12 207.88-18.04L207.88-18.04Q207.88-15 206.44-12.74Q205-10.48 202.30-9.28Q199.60-8.08 195.96-8.08L195.96-8.08L189.64-8.08L189.64 0L184.44 0L184.44-28L195.96-28ZM195.72-12.48Q199.12-12.48 200.88-13.92Q202.64-15.36 202.64-18.04L202.64-18.04Q202.64-20.72 200.88-22.16Q199.12-23.60 195.72-23.60L195.72-23.60L189.64-23.60L189.64-12.48L195.72-12.48Z M216.40 0L216.40-21.36L221.40-21.36L221.40 0L216.40 0ZM218.92-24.88Q217.56-24.88 216.64-25.74Q215.72-26.60 215.72-27.88L215.72-27.88Q215.72-29.16 216.64-30.02Q217.56-30.88 218.92-30.88L218.92-30.88Q220.28-30.88 221.20-30.06Q222.12-29.24 222.12-28L222.12-28Q222.12-26.68 221.22-25.78Q220.32-24.88 218.92-24.88L218.92-24.88Z M251.20 0L245.56 0L240.08-7.40L234.56 0L229.04 0L237.36-10.84L229.40-21.36L234.96-21.36L240.20-14.36L245.44-21.36L250.84-21.36L242.84-10.92L251.20 0Z M278.24-10.56Q278.24-10.04 278.16-9.08L278.16-9.08L261.40-9.08Q261.84-6.72 263.70-5.34Q265.56-3.96 268.32-3.96L268.32-3.96Q271.84-3.96 274.12-6.28L274.12-6.28L276.80-3.20Q275.36-1.48 273.16-0.60Q270.96 0.28 268.20 0.28L268.20 0.28Q264.68 0.28 262-1.12Q259.32-2.52 257.86-5.02Q256.40-7.52 256.40-10.68L256.40-10.68Q256.40-13.80 257.82-16.30Q259.24-18.80 261.76-20.20Q264.28-21.60 267.44-21.60L267.44-21.60Q270.56-21.60 273.02-20.22Q275.48-18.84 276.86-16.34Q278.24-13.84 278.24-10.56L278.24-10.56ZM267.44-17.60Q265.04-17.60 263.38-16.18Q261.72-14.76 261.36-12.40L261.36-12.40L273.48-12.40Q273.16-14.72 271.52-16.16Q269.88-17.60 267.44-17.60L267.44-17.60Z M287.04 0L287.04-29.68L292.04-29.68L292.04 0L287.04 0Z M318.12 0L318.12-28L330.36-28Q334.84-28 338.32-26.26Q341.80-24.52 343.72-21.34Q345.64-18.16 345.64-14L345.64-14Q345.64-9.84 343.72-6.66Q341.80-3.48 338.32-1.74Q334.84 0 330.36 0L330.36 0L318.12 0ZM323.32-4.40L330.12-4.40Q333.20-4.40 335.54-5.58Q337.88-6.76 339.14-8.94Q340.40-11.12 340.40-14L340.40-14Q340.40-16.88 339.14-19.06Q337.88-21.24 335.54-22.42Q333.20-23.60 330.12-23.60L330.12-23.60L323.32-23.60L323.32-4.40Z M375.60-23.64L360.36-23.64L360.36-15.12L373.88-15.12L373.88-10.72L360.36-10.72L360.36 0L355.16 0L355.16-28L375.60-28L375.60-23.64Z M384.64 0L384.64-28L389.84-28L389.84 0L384.64 0Z"/></g>
</svg>
</g><g opacity="1" transform="rotate(0 714.9295 286.2902)">
<svg width="240.0705" height="119.9396" x="714.9295" y="286.2902" version="1.1" preserveAspectRatio="none" viewBox="1.64 -28 50.24 28">
  <g transform="matrix(1 0 0 1 0 0)" class="aD6z1nYkhcolor"><path id="id-D6z1nYkh3" d="M1.64 0L1.64-28L7.92-28L10.72-7.96L10.80-7.96L13.60-28L19.88-28L19.88 0L15.72 0L15.72-21.20L15.64-21.20L12.44 0L8.76 0L5.56-21.20L5.48-21.20L5.48 0L1.64 0Z M23.16 0L23.16-28L29.64-28Q32.92-28 34.56-26.24Q36.20-24.48 36.20-21.08L36.20-21.08L36.20-18.32Q36.20-14.92 34.56-13.16Q32.92-11.40 29.64-11.40L29.64-11.40L27.56-11.40L27.56 0L23.16 0ZM27.56-15.40L29.64-15.40Q30.72-15.40 31.26-16Q31.80-16.60 31.80-18.04L31.80-18.04L31.80-21.36Q31.80-22.80 31.26-23.40Q30.72-24 29.64-24L29.64-24L27.56-24L27.56-15.40Z M38.60 0L38.60-28L45.32-28Q48.60-28 50.24-26.24Q51.88-24.48 51.88-21.08L51.88-21.08L51.88-6.92Q51.88-3.52 50.24-1.76Q48.60 0 45.32 0L45.32 0L38.60 0ZM43-4L45.24-4Q46.32-4 46.90-4.64Q47.48-5.28 47.48-6.72L47.48-6.72L47.48-21.28Q47.48-22.72 46.90-23.36Q46.32-24 45.24-24L45.24-24L43-24L43-4Z"/></g>
</svg>
</g></svg>